<svg xmlns="http://www.w3.org/2000/svg" width="224.588" height="224.588" viewBox="0 0 224.588 224.588">
  <path id="circle3926-2-6-1" d="M112.294,0A112.294,112.294,0,1,0,224.588,112.294,112.294,112.294,0,0,0,112.294,0ZM159.12,39.917a11.908,11.908,0,0,1,8.444,3.478l13.629,13.629a12.028,12.028,0,0,1,0,16.9l-2.945,2.945a4.008,4.008,0,0,1-.376.376l-1.489,1.488a4.01,4.01,0,0,1-.877.674l-.016.016L170.54,83.97a4.011,4.011,0,0,1-.909,1.409l-22.95,22.951,35.327,35.327a8.149,8.149,0,0,1,0,11.279l-19.254,19.254a8.169,8.169,0,0,1-11.3,0l-.015-.016-34.92-35.687L93.417,161.6a4.011,4.011,0,0,1-2.037,1.535L54.486,175.162a4.011,4.011,0,0,1-5.06-5.06l12.032-36.893a4.011,4.011,0,0,1,2.836-2.632l22.151-22.152L50.413,73.145l-.016-.016a8.169,8.169,0,0,1,0-11.3L69.651,42.58a8.177,8.177,0,0,1,11.279,0l35.688,35.687,21.76-21.76q.061-.08.125-.157l6.642-7.253a4.011,4.011,0,0,1,.705-.893l1.488-1.488a4.01,4.01,0,0,1,.345-.329l2.977-2.992A11.945,11.945,0,0,1,159.12,39.917Zm-.016,7.8a3.965,3.965,0,0,0-2.773,1.347l-3.086,3.071L147.9,57.98l18.7,18.705,5.656-5.17.188-.172.047-.047,3.023-3.039c1.79-1.791,1.79-3.771,0-5.561L161.893,49.066A4,4,0,0,0,159.1,47.719Zm-83.813.564L56.1,67.474l5.843,5.718,5.64-5.64,7.943,7.927L69.965,81.04l8.256,8.1L92.038,75.322l7.942,7.943L86.257,96.988l5.875,5.765,18.815-18.815ZM141.48,64.748,71.515,134.712l5.013,5.013,69.965-69.964ZM154.436,77.7,84.472,147.668l5.765,5.765L160.2,83.469ZM141.01,114,122.2,132.817l5.514,5.624,5.5-5.5,7.943,7.943-5.593,5.592,8.647,8.836,13.442-13.458,7.942,7.943-13.535,13.535,5.06,5.154L176.306,149.3ZM67.051,141.919l-6.689,20.523,1.786,1.785,20.522-6.69Z" fill-rule="evenodd"/>
</svg>
