<svg xmlns="http://www.w3.org/2000/svg" width="224.588" height="224.588" viewBox="0 0 224.588 224.588">
  <g id="Group_1" data-name="Group 1" transform="translate(0 -1026.362)">
    <path id="Path_1" data-name="Path 1" d="M112.294,0A112.294,112.294,0,1,0,224.588,112.294l-3.779-29.153A112.269,112.269,0,0,0,112.294,0Zm0,47.509a12.917,12.917,0,0,1,4.319,25.1v9.718h-8.638V72.613a12.917,12.917,0,0,1,4.319-25.1ZM75.043,62.356a12.966,12.966,0,0,1,9.178,3.779,12.761,12.761,0,0,1,2.43,14.577L93.4,87.46,87.46,93.669,80.711,86.92A13.226,13.226,0,0,1,65.865,84.49a12.957,12.957,0,0,1,9.178-22.135Zm73.963,0a12.957,12.957,0,0,1,9.178,22.135,13.2,13.2,0,0,1-14.846,2.429l-6.749,6.749L130.65,87.73l6.749-6.749a13.209,13.209,0,0,1,2.429-14.847A12.966,12.966,0,0,1,149.006,62.356ZM60.466,99.337a12.985,12.985,0,0,1,12.147,8.638h9.448v8.638H72.613A12.929,12.929,0,1,1,60.466,99.337Zm51.828,0a12.957,12.957,0,1,1-12.957,12.957A12.892,12.892,0,0,1,112.294,99.337Zm51.828,0a12.957,12.957,0,1,1-12.147,17.276h-9.448v-8.638h9.448A12.983,12.983,0,0,1,164.122,99.337Zm-49.938,34.552c11.525.536,23.071,5.882,32.122,15.656a55.815,55.815,0,0,1,4.049,4.859l.809,1.08v21.6H73.423V155.754l.81-1.35c9.165-12.483,21.938-19.321,35.092-20.245A30.433,30.433,0,0,1,114.184,133.889Zm-6.209,8.908C98.5,144.04,89.3,149.351,82.061,158.723v9.718h60.466v-9.987c-.84-1.078-1.791-1.988-2.7-2.97-6.9-7.453-14.935-11.658-23.215-12.687V159.8h-8.638V142.8Z" transform="translate(0 1026.362)"/>
    <path id="Path_2" data-name="Path 2" d="M70.226,1031.871a12.916,12.916,0,0,0-4.319,25.1v9.583h8.638v-9.583a12.916,12.916,0,0,0-4.319-25.1ZM33.143,1046.6a12.926,12.926,0,1,0,5.534,24.581l6.782,6.782,6.107-6.107-6.782-6.766a12.88,12.88,0,0,0-11.641-18.49Zm73.862.086a12.888,12.888,0,0,0-11.658,18.474l-6.765,6.766,6.107,6.107,6.765-6.766A12.924,12.924,0,1,0,107,1046.685Zm15.252,36.915a12.984,12.984,0,0,0-12.147,8.638h-9.583v8.639h9.583a12.929,12.929,0,1,0,12.147-17.276Zm-103.808.087A12.957,12.957,0,1,0,30.6,1100.962h9.583v-8.638H30.6A12.986,12.986,0,0,0,18.448,1083.687Zm51.845,0a12.957,12.957,0,1,1-12.957,12.957A12.892,12.892,0,0,1,70.293,1083.687Zm1.991,34.585a31.533,31.533,0,0,0-4.943.087c-13.155.925-25.91,7.982-35.075,20.465l-.844,1.147v21.342h77.742V1139.9l-.844-1.146a56.436,56.436,0,0,0-4.049-4.91c-9.05-9.773-20.462-15.019-31.988-15.555Zm2.328,8.908c8.279,1.029,16.414,5.065,23.316,12.519.909.981,1.759,2.062,2.6,3.138v9.819H40.06v-9.516c7.24-9.372,16.438-14.684,25.914-15.926v16.972h8.638V1127.18Z" transform="translate(41.942 42.069)" fill="#fff"/>
  </g>
</svg>
