<svg xmlns="http://www.w3.org/2000/svg" width="224.588" height="224.588" viewBox="0 0 224.588 224.588">
  <path id="Path_3" data-name="Path 3" d="M112.294,0A112.294,112.294,0,1,0,224.588,112.294,112.294,112.294,0,0,0,112.294,0ZM88.05,56.083h71.883a3.881,3.881,0,0,1,3.829,3.838v48.1a4.282,4.282,0,0,1-.9,2.641,3.627,3.627,0,0,1-2.934,1.572H133.349v2.339H173.12a2.34,2.34,0,0,1,2.339,2.339v14.037H177a7.345,7.345,0,0,1,5.72,2.952,10.363,10.363,0,0,1,2.093,6.406V154.34a10.389,10.389,0,0,1-2.093,6.415A7.336,7.336,0,0,1,177,163.7h-7.768a7.336,7.336,0,0,1-5.72-2.943,10.389,10.389,0,0,1-2.093-6.415V140.3a10.363,10.363,0,0,1,2.093-6.406,7.345,7.345,0,0,1,5.72-2.952h1.545v-11.7H133.349v4.679h15.206v4.679H99.427v-4.679h15.206v-11.7H88.05a3.627,3.627,0,0,1-2.934-1.572,4.279,4.279,0,0,1-.9-2.641v-.466H65.5v28.074h37.431v32.89h-65.5v-32.89H60.826V105.212a2.34,2.34,0,0,1,2.339-2.339H84.221V59.921A3.881,3.881,0,0,1,88.05,56.083Zm.85,4.679V93.514h70.184V60.762Zm0,37.431v9.358h70.184V98.193Zm30.413,14.037v7.018h9.358V112.23Zm49.924,23.395a2.55,2.55,0,0,0-2.029,1.151A5.828,5.828,0,0,0,166.1,140.3V154.34a5.826,5.826,0,0,0,1.106,3.527,2.554,2.554,0,0,0,2.029,1.151H177a2.549,2.549,0,0,0,2.029-1.151,5.826,5.826,0,0,0,1.106-3.527V140.3a5.828,5.828,0,0,0-1.106-3.527A2.554,2.554,0,0,0,177,135.625h-1.545v3.281a3.5,3.5,0,0,1,1.17,2.568,3.509,3.509,0,1,1-7.018,0,3.5,3.5,0,0,1,1.17-2.568v-3.281ZM42.11,140.3v9.358H77.2V140.3Zm39.771,0v4.679H98.257V140.3Zm0,9.358v14.174H98.257V149.661ZM42.11,154.34v9.495H77.2V154.34Z" fill-rule="evenodd"/>
</svg>
